<svg id="Capa_1" enable-background="new 0 0 512 512" height="512" viewBox="0 0 512 512" width="512" xmlns="http://www.w3.org/2000/svg"><g><g><g><g><g><g><g><circle cx="256" cy="256" fill="#ffce00" r="256"/></g></g></g></g></g></g><path d="m512 256c0-15.301-1.343-30.288-3.916-44.851l-79.602-79.602-16.33 24.92-24.92-24.92-10.774 28.396-28.396-28.396-79.865 106.813-106.814-106.812-12.408 39.664-39.664-39.664-25.794 248.904 127.632 127.632c14.563 2.573 29.55 3.916 44.851 3.916 141.385 0 256-114.615 256-256z" fill="#ffa300"/><g><path d="m183.763 131.548-22.38 23.471v-23.471h-29.475l-11.575 30.313-11.023-30.313h-25.793v248.904h49.014l9.63-29.632 18.175 29.632h40.513l7.122-24.42 10.635 24.42h38.886v-248.904z" fill="#d79b8c"/></g><g><path d="m404.655 131.548-9.679 18.584-7.744-18.584h-16.866l-22.304 24.449v-24.449h-91.942v248.904h60.457l6.724-20.51 10.087 20.51h15.777l8.019-24.42 14.163 24.42h57.135v-248.904z" fill="#b46e5a"/></g><g><path d="m216.008 232.883-58.643-28.669-33.448 39.529-18.679 33.448 16.507 27.801 38.661 7.384 80.796 37.792 16.29-5.587v-126.418z" fill="#b46e5a"/></g><g><path d="m340.677 251.996-57.339-43.004-27.218 9.658v126.401l59.797-20.512z" fill="#915041"/></g><g><path d="m268.134 174.458-20.74 18.679-20.527-9.339-3.909-21.937 24.436-10.425z" fill="#b46e5a"/></g><g><path d="m256.12 161.123v24.154l12.014-10.819z" fill="#915041"/></g><g><path d="m324.605 191.508 36.488-13.683 13.032 33.23-28.018 10.426-17.593-7.168z" fill="#915041"/></g><g><path d="m365.437 250 24.76-13.207 18.462 40.398-31.928 59.946-21.502-3.258-5.864-18.245 11.077-16.289-5.865-22.154z" fill="#915041"/></g></g></svg>